<?xml version="1.0" encoding="UTF-8"?>
<svg width="48px" height="48px" viewBox="0 0 48 48" version="1.1" xmlns="http://www.w3.org/2000/svg" xmlns:xlink="http://www.w3.org/1999/xlink">
    <!-- Generator: Sketch 52 (66869) - http://www.bohemiancoding.com/sketch -->
    <title>k6 logo</title>
    <desc>Created with Sketch.</desc>
    <g id="Page-3" stroke="none" stroke-width="1" fill="none" fill-rule="evenodd">
        <g id="k6-logo" transform="translate(2.000000, 3.000000)" fill="#7D64FF" fill-rule="nonzero">
            <path d="M43,42 L0,42 L14.3141253,11.2619656 L22.9374864,17.6421787 L34.1850779,0 L43,42 Z M27.2343716,35.3588102 L27.3270373,35.3588102 C28.3913199,35.3609718 29.4148431,34.9470738 30.1817639,34.2044 C30.9779137,33.4789535 31.4260267,32.4442312 31.4121152,31.3634379 C31.4476982,30.3213492 31.012858,29.3190169 30.2292648,28.636898 C29.5761554,27.9774652 28.6957388,27.5965933 27.7708982,27.5733985 L27.7008149,27.5733985 C27.58018,27.5731431 27.4601132,27.5900289 27.3441688,27.6235562 L29.6148678,24.2285085 L27.8067186,22.9573249 L26.9501449,24.2285085 L24.7627671,27.5906402 C24.3866534,28.1478606 24.0720572,28.6392491 23.8781601,28.9746786 C23.6760044,29.3356576 23.5020874,29.7119328 23.3579862,30.1000914 C23.1939681,30.5123563 23.1094021,30.9522692 23.1088012,31.3963539 C23.0986561,32.4631943 23.5390908,33.4841932 24.3204636,34.2051837 C25.0773949,34.9472016 26.0928406,35.3615631 27.1494929,35.359594 L27.2343716,35.3588102 Z M17.6204998,31.7027859 L20.1263673,35.2694669 L22.8051068,35.2694669 L19.8569359,31.1306749 L22.476494,27.470732 L20.7392068,26.2598944 L19.9667331,27.2787222 L17.617385,30.6251796 L17.617385,23.909537 L15.2711518,21.9839525 L15.2711518,35.2710343 L17.617385,35.2710343 L17.617385,31.7027859 L17.6204998,31.7027859 Z M27.2374864,33.1307122 C26.2844602,33.1307122 25.5118798,32.3531609 25.5118798,31.3940027 C25.5118798,30.4348445 26.2844602,29.6572932 27.2374864,29.6572932 L27.2530605,29.6572932 C27.7120973,29.6583051 28.1509523,29.8473131 28.4686164,30.1808139 C28.8031784,30.49011 28.9921385,30.9274008 28.9887903,31.3845982 C28.9789763,32.3512483 28.1980066,33.1299038 27.2374864,33.1307122 Z" id="Exclusion_1"></path>
        </g>
    </g>
</svg>